<svg width="300" height="150" viewBox="0 0 300 150" fill="none" xmlns="http://www.w3.org/2000/svg">
<path d="M0 10C0 4.47715 4.47715 0 10 0H290C295.523 0 300 4.47715 300 10V140C300 145.523 295.523 150 290 150H10C4.47716 150 0 145.523 0 140V10Z" fill="#F5F5F5"/>
<path d="M45.9488 67L41.9268 60.0949H39.2617V67H37.0569V50.1127H42.5083C43.7844 50.1127 44.8585 50.3307 45.7307 50.7669C46.6191 51.203 47.2813 51.7925 47.7175 52.5355C48.1536 53.2786 48.3716 54.1266 48.3716 55.0795C48.3716 56.2425 48.0324 57.2682 47.354 58.1566C46.6918 59.045 45.6903 59.6345 44.3497 59.9253L48.5897 67H45.9488ZM39.2617 58.3262H42.5083C43.7036 58.3262 44.6001 58.0354 45.1977 57.4539C45.7953 56.8563 46.0942 56.0648 46.0942 55.0795C46.0942 54.0781 45.7953 53.3028 45.1977 52.7536C44.6162 52.2044 43.7197 51.9298 42.5083 51.9298H39.2617V58.3262ZM63.9118 59.8526C63.9118 60.2725 63.8876 60.7167 63.8391 61.1851H53.227C53.3078 62.4935 53.752 63.5192 54.5596 64.2622C55.3833 64.989 56.3767 65.3525 57.5397 65.3525C58.4927 65.3525 59.2841 65.1344 59.9141 64.6983C60.5602 64.246 61.0125 63.6484 61.2709 62.9054H63.6453C63.2899 64.1814 62.5792 65.2232 61.5132 66.0309C60.4471 66.8223 59.1226 67.2181 57.5397 67.2181C56.2798 67.2181 55.1491 66.9354 54.1477 66.3701C53.1624 65.8047 52.3871 65.0052 51.8217 63.9714C51.2564 62.9215 50.9737 61.7101 50.9737 60.3371C50.9737 58.9642 51.2483 57.7608 51.7975 56.7271C52.3467 55.6933 53.1139 54.9019 54.0992 54.3527C55.1007 53.7874 56.2475 53.5047 57.5397 53.5047C58.7996 53.5047 59.9141 53.7793 60.8832 54.3285C61.8524 54.8776 62.5954 55.6368 63.1123 56.6059C63.6453 57.5589 63.9118 58.6411 63.9118 59.8526ZM61.6343 59.3922C61.6343 58.5523 61.4486 57.8335 61.0771 57.2359C60.7056 56.6221 60.1968 56.1618 59.5507 55.8549C58.9207 55.5318 58.2181 55.3703 57.4428 55.3703C56.3283 55.3703 55.3753 55.7256 54.5838 56.4363C53.8085 57.147 53.3643 58.1323 53.2512 59.3922H61.6343ZM65.9983 60.3129C65.9983 58.9561 66.2729 57.7689 66.8221 56.7513C67.3713 55.7176 68.1223 54.918 69.0753 54.3527C70.0445 53.7874 71.1186 53.5047 72.2977 53.5047C73.4607 53.5047 74.4702 53.755 75.3263 54.2558C76.1824 54.7565 76.8204 55.3864 77.2404 56.1456V53.7227H79.4694V67H77.2404V64.5287C76.8042 65.304 76.1501 65.9501 75.2778 66.467C74.4218 66.9677 73.4203 67.2181 72.2735 67.2181C71.0944 67.2181 70.0283 66.9273 69.0753 66.3458C68.1223 65.7643 67.3713 64.9486 66.8221 63.8987C66.2729 62.8488 65.9983 61.6536 65.9983 60.3129ZM77.2404 60.3371C77.2404 59.3357 77.0385 58.4635 76.6346 57.7205C76.2308 56.9774 75.6817 56.4121 74.9871 56.0245C74.3087 55.6206 73.5576 55.4187 72.7338 55.4187C71.9101 55.4187 71.159 55.6126 70.4806 56.0002C69.8022 56.3879 69.2611 56.9532 68.8573 57.6962C68.4535 58.4392 68.2516 59.3115 68.2516 60.3129C68.2516 61.3305 68.4535 62.2189 68.8573 62.9781C69.2611 63.7211 69.8022 64.2945 70.4806 64.6983C71.159 65.0859 71.9101 65.2798 72.7338 65.2798C73.5576 65.2798 74.3087 65.0859 74.9871 64.6983C75.6817 64.2945 76.2308 63.7211 76.6346 62.9781C77.0385 62.2189 77.2404 61.3386 77.2404 60.3371ZM85.4001 49.0709V67H83.1953V49.0709H85.4001ZM106.011 50.1127V51.9056H101.408V67H99.203V51.9056H94.5753V50.1127H106.011ZM109.864 51.5664C109.444 51.5664 109.089 51.421 108.798 51.1303C108.507 50.8395 108.362 50.4842 108.362 50.0642C108.362 49.6443 108.507 49.2889 108.798 48.9982C109.089 48.7074 109.444 48.5621 109.864 48.5621C110.268 48.5621 110.607 48.7074 110.882 48.9982C111.172 49.2889 111.318 49.6443 111.318 50.0642C111.318 50.4842 111.172 50.8395 110.882 51.1303C110.607 51.421 110.268 51.5664 109.864 51.5664ZM110.93 53.7227V67H108.725V53.7227H110.93ZM130.654 53.4805C131.688 53.4805 132.609 53.6985 133.416 54.1346C134.224 54.5546 134.862 55.1926 135.33 56.0487C135.799 56.9048 136.033 57.9466 136.033 59.1742V67H133.852V59.4891C133.852 58.1646 133.521 57.1551 132.859 56.4606C132.213 55.7499 131.333 55.3945 130.218 55.3945C129.071 55.3945 128.159 55.766 127.48 56.509C126.802 57.2359 126.463 58.2939 126.463 59.683V67H124.282V59.4891C124.282 58.1646 123.951 57.1551 123.289 56.4606C122.643 55.7499 121.762 55.3945 120.648 55.3945C119.501 55.3945 118.588 55.766 117.91 56.509C117.232 57.2359 116.892 58.2939 116.892 59.683V67H114.688V53.7227H116.892V55.6368C117.329 54.9422 117.91 54.4092 118.637 54.0377C119.38 53.6662 120.196 53.4805 121.084 53.4805C122.199 53.4805 123.184 53.7308 124.04 54.2315C124.896 54.7323 125.534 55.4672 125.954 56.4363C126.325 55.4995 126.939 54.7726 127.795 54.2558C128.651 53.7389 129.604 53.4805 130.654 53.4805ZM151.764 59.8526C151.764 60.2725 151.74 60.7167 151.691 61.1851H141.079C141.16 62.4935 141.604 63.5192 142.412 64.2622C143.236 64.989 144.229 65.3525 145.392 65.3525C146.345 65.3525 147.136 65.1344 147.766 64.6983C148.412 64.246 148.865 63.6484 149.123 62.9054H151.498C151.142 64.1814 150.431 65.2232 149.365 66.0309C148.299 66.8223 146.975 67.2181 145.392 67.2181C144.132 67.2181 143.001 66.9354 142 66.3701C141.015 65.8047 140.239 65.0052 139.674 63.9714C139.109 62.9215 138.826 61.7101 138.826 60.3371C138.826 58.9642 139.101 57.7608 139.65 56.7271C140.199 55.6933 140.966 54.9019 141.951 54.3527C142.953 53.7874 144.1 53.5047 145.392 53.5047C146.652 53.5047 147.766 53.7793 148.735 54.3285C149.705 54.8776 150.448 55.6368 150.965 56.6059C151.498 57.5589 151.764 58.6411 151.764 59.8526ZM149.487 59.3922C149.487 58.5523 149.301 57.8335 148.929 57.2359C148.558 56.6221 148.049 56.1618 147.403 55.8549C146.773 55.5318 146.07 55.3703 145.295 55.3703C144.181 55.3703 143.228 55.7256 142.436 56.4363C141.661 57.147 141.217 58.1323 141.103 59.3922H149.487ZM54.49 86.1127V87.9056H49.8866V103H47.6818V87.9056H43.0541V86.1127H54.49ZM59.4088 91.8791C59.7964 91.1199 60.3456 90.5304 61.0563 90.1104C61.7832 89.6904 62.6635 89.4805 63.6972 89.4805V91.7579H63.1158C60.6444 91.7579 59.4088 93.0986 59.4088 95.7799V103H57.204V89.7227H59.4088V91.8791ZM65.4186 96.3129C65.4186 94.9561 65.6932 93.7689 66.2424 92.7513C66.7916 91.7176 67.5427 90.918 68.4956 90.3527C69.4648 89.7874 70.5389 89.5047 71.718 89.5047C72.881 89.5047 73.8905 89.755 74.7466 90.2558C75.6027 90.7565 76.2407 91.3864 76.6607 92.1456V89.7227H78.8897V103H76.6607V100.529C76.2246 101.304 75.5704 101.95 74.6982 102.467C73.8421 102.968 72.8406 103.218 71.6938 103.218C70.5147 103.218 69.4486 102.927 68.4956 102.346C67.5427 101.764 66.7916 100.949 66.2424 99.8987C65.6932 98.8488 65.4186 97.6536 65.4186 96.3129ZM76.6607 96.3371C76.6607 95.3357 76.4588 94.4635 76.055 93.7205C75.6511 92.9774 75.102 92.4121 74.4074 92.0245C73.729 91.6206 72.9779 91.4187 72.1542 91.4187C71.3304 91.4187 70.5793 91.6126 69.9009 92.0002C69.2225 92.3879 68.6814 92.9532 68.2776 93.6962C67.8738 94.4392 67.6719 95.3115 67.6719 96.3129C67.6719 97.3305 67.8738 98.2189 68.2776 98.9781C68.6814 99.7211 69.2225 100.294 69.9009 100.698C70.5793 101.086 71.3304 101.28 72.1542 101.28C72.9779 101.28 73.729 101.086 74.4074 100.698C75.102 100.294 75.6511 99.7211 76.055 98.9781C76.4588 98.2189 76.6607 97.3386 76.6607 96.3371ZM81.7918 96.3371C81.7918 94.9642 82.0664 93.7689 82.6156 92.7513C83.1648 91.7176 83.9239 90.918 84.8931 90.3527C85.8784 89.7874 87.001 89.5047 88.2609 89.5047C89.8922 89.5047 91.2329 89.9004 92.2828 90.6919C93.3489 91.4834 94.0515 92.5817 94.3907 93.987H92.0163C91.7902 93.1794 91.346 92.5413 90.6837 92.0729C90.0376 91.6045 89.23 91.3703 88.2609 91.3703C87.001 91.3703 85.9834 91.8064 85.2081 92.6786C84.4327 93.5347 84.0451 94.7542 84.0451 96.3371C84.0451 97.9362 84.4327 99.1719 85.2081 100.044C85.9834 100.916 87.001 101.352 88.2609 101.352C89.23 101.352 90.0376 101.126 90.6837 100.674C91.3298 100.222 91.774 99.5757 92.0163 98.7358H94.3907C94.0353 100.093 93.3246 101.183 92.2586 102.007C91.1925 102.814 89.8599 103.218 88.2609 103.218C87.001 103.218 85.8784 102.935 84.8931 102.37C83.9239 101.805 83.1648 101.005 82.6156 99.9714C82.0664 98.9377 81.7918 97.7262 81.7918 96.3371ZM104.747 103L99.5374 97.1367V103H97.3326V85.0709H99.5374V95.6103L104.65 89.7227H107.727L101.476 96.3371L107.751 103H104.747ZM110.941 87.5664C110.521 87.5664 110.165 87.421 109.874 87.1303C109.584 86.8395 109.438 86.4842 109.438 86.0642C109.438 85.6443 109.584 85.2889 109.874 84.9982C110.165 84.7074 110.521 84.5621 110.941 84.5621C111.344 84.5621 111.684 84.7074 111.958 84.9982C112.249 85.2889 112.394 85.6443 112.394 86.0642C112.394 86.4842 112.249 86.8395 111.958 87.1303C111.684 87.421 111.344 87.5664 110.941 87.5664ZM112.007 89.7227V103H109.802V89.7227H112.007ZM122.233 89.4805C123.849 89.4805 125.157 89.9731 126.158 90.9584C127.16 91.9275 127.66 93.3328 127.66 95.1742V103H125.48V95.4891C125.48 94.1646 125.149 93.1551 124.487 92.4606C123.824 91.7499 122.92 91.3945 121.773 91.3945C120.61 91.3945 119.681 91.7579 118.987 92.4848C118.308 93.2117 117.969 94.2696 117.969 95.6587V103H115.764V89.7227H117.969V91.6126C118.405 90.9342 118.995 90.4092 119.738 90.0377C120.497 89.6662 121.329 89.4805 122.233 89.4805ZM136.738 89.5047C137.885 89.5047 138.886 89.755 139.742 90.2558C140.614 90.7565 141.26 91.3864 141.68 92.1456V89.7227H143.909V103.291C143.909 104.502 143.651 105.576 143.134 106.513C142.617 107.466 141.874 108.209 140.905 108.742C139.952 109.275 138.837 109.542 137.561 109.542C135.817 109.542 134.363 109.13 133.2 108.306C132.037 107.482 131.351 106.36 131.141 104.938H133.321C133.564 105.746 134.064 106.392 134.824 106.877C135.583 107.377 136.495 107.628 137.561 107.628C138.773 107.628 139.758 107.248 140.517 106.489C141.293 105.73 141.68 104.664 141.68 103.291V100.504C141.244 101.28 140.598 101.926 139.742 102.443C138.886 102.96 137.885 103.218 136.738 103.218C135.559 103.218 134.484 102.927 133.515 102.346C132.562 101.764 131.811 100.949 131.262 99.8987C130.713 98.8488 130.438 97.6536 130.438 96.3129C130.438 94.9561 130.713 93.7689 131.262 92.7513C131.811 91.7176 132.562 90.918 133.515 90.3527C134.484 89.7874 135.559 89.5047 136.738 89.5047ZM141.68 96.3371C141.68 95.3357 141.478 94.4635 141.075 93.7205C140.671 92.9774 140.122 92.4121 139.427 92.0245C138.749 91.6206 137.998 91.4187 137.174 91.4187C136.35 91.4187 135.599 91.6126 134.921 92.0002C134.242 92.3879 133.701 92.9532 133.297 93.6962C132.893 94.4392 132.692 95.3115 132.692 96.3129C132.692 97.3305 132.893 98.2189 133.297 98.9781C133.701 99.7211 134.242 100.294 134.921 100.698C135.599 101.086 136.35 101.28 137.174 101.28C137.998 101.28 138.749 101.086 139.427 100.698C140.122 100.294 140.671 99.7211 141.075 98.9781C141.478 98.2189 141.68 97.3386 141.68 96.3371Z" fill="black"/>
<path d="M249.45 82.241L256.06 48.68C260.524 46.2505 263.575 41.6175 263.575 36.25C263.575 32.5038 262.087 28.9111 259.438 26.2621C256.789 23.6132 253.196 22.125 249.45 22.125C245.704 22.125 242.111 23.6132 239.462 26.2621C236.813 28.9111 235.325 32.5038 235.325 36.25C235.325 41.6175 238.376 46.2505 242.839 48.68L249.45 82.241ZM249.45 27.775C254.139 27.775 257.925 31.5605 257.925 36.25C257.925 40.9395 254.139 44.725 249.45 44.725C244.76 44.725 240.975 40.9395 240.975 36.25C240.975 31.5605 244.76 27.775 249.45 27.775ZM259.168 54.895L277.7 47.3805V98.2305L250.128 109.7L215.55 98.2305L187.3 109.53V58.6805L215.55 47.3805L239.675 55.347L249.45 96.592L259.168 54.895Z" fill="#003B5E"/>
</svg>
