<svg width="300" height="150" viewBox="0 0 300 150" fill="none" xmlns="http://www.w3.org/2000/svg">
<path d="M0 10C0 4.47715 4.47715 0 10 0H290C295.523 0 300 4.47715 300 10V140C300 145.523 295.523 150 290 150H10C4.47716 150 0 145.523 0 140V10Z" fill="#DADADA" fill-opacity="0.25"/>
<path d="M49.417 79.2446H42.0515L40.6947 83H38.3687L44.4743 66.2096H47.0183L53.0997 83H50.7738L49.417 79.2446ZM48.787 77.4517L45.7342 68.9232L42.6814 77.4517H48.787ZM57.9655 65.0709V83H55.7607V65.0709H57.9655ZM63.928 65.0709V83H61.7232V65.0709H63.928ZM84.1272 79.2446H76.7618L75.405 83H73.079L79.1846 66.2096H81.7286L87.81 83H85.484L84.1272 79.2446ZM83.4973 77.4517L80.4445 68.9232L77.3917 77.4517H83.4973ZM95.1713 83.2181C94.1537 83.2181 93.2411 83.0485 92.4335 82.7093C91.6259 82.3539 90.9878 81.8693 90.5194 81.2555C90.051 80.6256 89.7926 79.9068 89.7441 79.0992H92.0216C92.0862 79.7614 92.3931 80.3026 92.9423 80.7225C93.5076 81.1425 94.2425 81.3525 95.1471 81.3525C95.987 81.3525 96.6492 81.1667 97.1338 80.7952C97.6184 80.4237 97.8607 79.9553 97.8607 79.3899C97.8607 78.8085 97.6022 78.3804 97.0854 78.1058C96.5685 77.8151 95.7689 77.5324 94.6867 77.2578C93.7014 76.9994 92.8938 76.741 92.2639 76.4825C91.6501 76.2079 91.1171 75.8122 90.6648 75.2953C90.2287 74.7623 90.0106 74.0677 90.0106 73.2117C90.0106 72.5333 90.2125 71.9114 90.6163 71.3461C91.0201 70.7807 91.5936 70.3365 92.3366 70.0135C93.0796 69.6743 93.9276 69.5047 94.8806 69.5047C96.3504 69.5047 97.5376 69.8762 98.4422 70.6192C99.3467 71.3622 99.8313 72.3798 99.8959 73.672H97.6911C97.6426 72.9774 97.36 72.4202 96.8431 72.0002C96.3424 71.5803 95.664 71.3703 94.8079 71.3703C94.0164 71.3703 93.3865 71.5399 92.918 71.8791C92.4496 72.2183 92.2154 72.6625 92.2154 73.2117C92.2154 73.6478 92.3527 74.0112 92.6273 74.3019C92.918 74.5765 93.2734 74.8027 93.6934 74.9803C94.1295 75.1419 94.7271 75.3276 95.4863 75.5376C96.4393 75.796 97.2146 76.0545 97.8122 76.3129C98.4099 76.5552 98.9187 76.9267 99.3386 77.4274C99.7747 77.9282 100.001 78.5823 100.017 79.3899C100.017 80.1168 99.8151 80.771 99.4113 81.3525C99.0075 81.9339 98.4341 82.3943 97.6911 82.7335C96.9642 83.0565 96.1243 83.2181 95.1713 83.2181ZM107.83 83.2181C106.812 83.2181 105.9 83.0485 105.092 82.7093C104.284 82.3539 103.646 81.8693 103.178 81.2555C102.709 80.6256 102.451 79.9068 102.403 79.0992H104.68C104.745 79.7614 105.052 80.3026 105.601 80.7225C106.166 81.1425 106.901 81.3525 107.806 81.3525C108.645 81.3525 109.308 81.1667 109.792 80.7952C110.277 80.4237 110.519 79.9553 110.519 79.3899C110.519 78.8085 110.261 78.3804 109.744 78.1058C109.227 77.8151 108.427 77.5324 107.345 77.2578C106.36 76.9994 105.552 76.741 104.922 76.4825C104.309 76.2079 103.776 75.8122 103.323 75.2953C102.887 74.7623 102.669 74.0677 102.669 73.2117C102.669 72.5333 102.871 71.9114 103.275 71.3461C103.679 70.7807 104.252 70.3365 104.995 70.0135C105.738 69.6743 106.586 69.5047 107.539 69.5047C109.009 69.5047 110.196 69.8762 111.101 70.6192C112.005 71.3622 112.49 72.3798 112.554 73.672H110.35C110.301 72.9774 110.018 72.4202 109.502 72.0002C109.001 71.5803 108.322 71.3703 107.466 71.3703C106.675 71.3703 106.045 71.5399 105.577 71.8791C105.108 72.2183 104.874 72.6625 104.874 73.2117C104.874 73.6478 105.011 74.0112 105.286 74.3019C105.577 74.5765 105.932 74.8027 106.352 74.9803C106.788 75.1419 107.386 75.3276 108.145 75.5376C109.098 75.796 109.873 76.0545 110.471 76.3129C111.068 76.5552 111.577 76.9267 111.997 77.4274C112.433 77.9282 112.659 78.5823 112.675 79.3899C112.675 80.1168 112.474 80.771 112.07 81.3525C111.666 81.9339 111.093 82.3943 110.35 82.7335C109.623 83.0565 108.783 83.2181 107.83 83.2181ZM127.902 75.8526C127.902 76.2725 127.878 76.7167 127.83 77.1851H117.217C117.298 78.4935 117.742 79.5192 118.55 80.2622C119.374 80.989 120.367 81.3525 121.53 81.3525C122.483 81.3525 123.275 81.1344 123.904 80.6983C124.551 80.246 125.003 79.6484 125.261 78.9054H127.636C127.28 80.1814 126.57 81.2232 125.504 82.0309C124.438 82.8223 123.113 83.2181 121.53 83.2181C120.27 83.2181 119.14 82.9354 118.138 82.3701C117.153 81.8047 116.377 81.0052 115.812 79.9714C115.247 78.9215 114.964 77.7101 114.964 76.3371C114.964 74.9642 115.239 73.7608 115.788 72.7271C116.337 71.6933 117.104 70.9019 118.09 70.3527C119.091 69.7874 120.238 69.5047 121.53 69.5047C122.79 69.5047 123.904 69.7793 124.874 70.3285C125.843 70.8776 126.586 71.6368 127.103 72.6059C127.636 73.5589 127.902 74.6411 127.902 75.8526ZM125.625 75.3922C125.625 74.5523 125.439 73.8335 125.067 73.2359C124.696 72.6221 124.187 72.1618 123.541 71.8549C122.911 71.5318 122.208 71.3703 121.433 71.3703C120.319 71.3703 119.366 71.7256 118.574 72.4363C117.799 73.147 117.355 74.1323 117.242 75.3922H125.625ZM133.502 71.5399V79.3657C133.502 80.0118 133.639 80.4722 133.914 80.7467C134.188 81.0052 134.665 81.1344 135.343 81.1344H136.967V83H134.98C133.752 83 132.832 82.7173 132.218 82.152C131.604 81.5867 131.297 80.6579 131.297 79.3657V71.5399H129.577V69.7227H131.297V66.3792H133.502V69.7227H136.967V71.5399H133.502ZM144.338 83.2181C143.321 83.2181 142.408 83.0485 141.6 82.7093C140.793 82.3539 140.155 81.8693 139.686 81.2555C139.218 80.6256 138.96 79.9068 138.911 79.0992H141.189C141.253 79.7614 141.56 80.3026 142.109 80.7225C142.675 81.1425 143.41 81.3525 144.314 81.3525C145.154 81.3525 145.816 81.1667 146.301 80.7952C146.785 80.4237 147.028 79.9553 147.028 79.3899C147.028 78.8085 146.769 78.3804 146.252 78.1058C145.735 77.8151 144.936 77.5324 143.854 77.2578C142.868 76.9994 142.061 76.741 141.431 76.4825C140.817 76.2079 140.284 75.8122 139.832 75.2953C139.396 74.7623 139.178 74.0677 139.178 73.2117C139.178 72.5333 139.379 71.9114 139.783 71.3461C140.187 70.7807 140.761 70.3365 141.504 70.0135C142.247 69.6743 143.095 69.5047 144.048 69.5047C145.517 69.5047 146.705 69.8762 147.609 70.6192C148.514 71.3622 148.998 72.3798 149.063 73.672H146.858C146.81 72.9774 146.527 72.4202 146.01 72.0002C145.509 71.5803 144.831 71.3703 143.975 71.3703C143.183 71.3703 142.553 71.5399 142.085 71.8791C141.617 72.2183 141.382 72.6625 141.382 73.2117C141.382 73.6478 141.52 74.0112 141.794 74.3019C142.085 74.5765 142.44 74.8027 142.86 74.9803C143.296 75.1419 143.894 75.3276 144.653 75.5376C145.606 75.796 146.382 76.0545 146.979 76.3129C147.577 76.5552 148.086 76.9267 148.506 77.4274C148.942 77.9282 149.168 78.5823 149.184 79.3899C149.184 80.1168 148.982 80.771 148.578 81.3525C148.174 81.9339 147.601 82.3943 146.858 82.7335C146.131 83.0565 145.291 83.2181 144.338 83.2181Z" fill="black"/>
<path fill-rule="evenodd" clip-rule="evenodd" d="M199.243 41.544L199.813 129.452L253.972 129.101L253.402 41.1927L199.243 41.544Z" fill="#003B5E"/>
<path fill-rule="evenodd" clip-rule="evenodd" d="M260.5 41.3568L261.071 129.265L265.89 129.234C274.322 129.179 281.112 122.499 281.059 114.304L280.681 56.0372C280.628 47.8693 273.752 41.2708 265.32 41.3255L260.5 41.3568Z" fill="#003B5E"/>
<path fill-rule="evenodd" clip-rule="evenodd" d="M172.227 56.7473L172.605 115.014C172.658 123.202 179.602 129.8 188.129 129.745L192.772 129.715L192.202 41.8064L187.559 41.8365C179.031 41.8851 172.174 48.5726 172.227 56.7473Z" fill="#003B5E"/>
<path fill-rule="evenodd" clip-rule="evenodd" d="M232.788 21.309L219.577 21.3947C211.104 21.4497 205.998 27.387 206.045 34.6601L212.559 34.6179C212.533 30.6322 214.73 27.5744 219.617 27.5427L232.828 27.457C237.702 27.4254 240.012 30.4608 240.038 34.4397L246.525 34.3976C246.478 27.1244 241.268 21.2541 232.788 21.309V21.309Z" fill="#003B5E"/>
</svg>
