<svg width="300" height="150" viewBox="0 0 300 150" fill="none" xmlns="http://www.w3.org/2000/svg">
<path d="M0 10C0 4.47715 4.47715 0 10 0H290C295.523 0 300 4.47715 300 10V140C300 145.523 295.523 150 290 150H10C4.47716 150 0 145.523 0 140V10Z" fill="#F5F5F5"/>
<path d="M68.7721 63.2446H61.4066L60.0498 67H57.7239L63.8295 50.2096H66.3735L72.4548 67H70.1289L68.7721 63.2446ZM68.1422 61.4517L65.0894 52.9232L62.0366 61.4517H68.1422ZM79.8162 67.2181C78.7986 67.2181 77.886 67.0485 77.0783 66.7093C76.2707 66.3539 75.6327 65.8693 75.1643 65.2555C74.6959 64.6256 74.4374 63.9068 74.389 63.0992H76.6665C76.7311 63.7614 77.038 64.3026 77.5871 64.7225C78.1525 65.1425 78.8874 65.3525 79.7919 65.3525C80.6319 65.3525 81.2941 65.1667 81.7787 64.7952C82.2633 64.4237 82.5055 63.9553 82.5055 63.3899C82.5055 62.8085 82.2471 62.3804 81.7302 62.1058C81.2133 61.8151 80.4138 61.5324 79.3316 61.2578C78.3463 60.9994 77.5387 60.741 76.9087 60.4825C76.2949 60.2079 75.7619 59.8122 75.3096 59.2953C74.8735 58.7623 74.6555 58.0677 74.6555 57.2117C74.6555 56.5333 74.8574 55.9114 75.2612 55.3461C75.665 54.7807 76.2384 54.3365 76.9814 54.0135C77.7244 53.6743 78.5724 53.5047 79.5254 53.5047C80.9953 53.5047 82.1825 53.8762 83.087 54.6192C83.9916 55.3622 84.4761 56.3798 84.5407 57.672H82.3359C82.2875 56.9774 82.0048 56.4202 81.4879 56.0002C80.9872 55.5803 80.3088 55.3703 79.4527 55.3703C78.6613 55.3703 78.0313 55.5399 77.5629 55.8791C77.0945 56.2183 76.8603 56.6625 76.8603 57.2117C76.8603 57.6478 76.9976 58.0112 77.2722 58.3019C77.5629 58.5765 77.9183 58.8027 78.3382 58.9803C78.7743 59.1419 79.372 59.3276 80.1311 59.5376C81.0841 59.796 81.8594 60.0545 82.4571 60.3129C83.0547 60.5552 83.5635 60.9267 83.9835 61.4274C84.4196 61.9282 84.6457 62.5823 84.6619 63.3899C84.6619 64.1168 84.46 64.771 84.0562 65.3525C83.6524 65.9339 83.0789 66.3943 82.3359 66.7335C81.6091 67.0565 80.7692 67.2181 79.8162 67.2181ZM92.4747 67.2181C91.4571 67.2181 90.5444 67.0485 89.7368 66.7093C88.9292 66.3539 88.2912 65.8693 87.8228 65.2555C87.3543 64.6256 87.0959 63.9068 87.0474 63.0992H89.3249C89.3895 63.7614 89.6964 64.3026 90.2456 64.7225C90.811 65.1425 91.5459 65.3525 92.4504 65.3525C93.2903 65.3525 93.9526 65.1667 94.4372 64.7952C94.9217 64.4237 95.164 63.9553 95.164 63.3899C95.164 62.8085 94.9056 62.3804 94.3887 62.1058C93.8718 61.8151 93.0723 61.5324 91.9901 61.2578C91.0048 60.9994 90.1972 60.741 89.5672 60.4825C88.9534 60.2079 88.4204 59.8122 87.9681 59.2953C87.532 58.7623 87.314 58.0677 87.314 57.2117C87.314 56.5333 87.5159 55.9114 87.9197 55.3461C88.3235 54.7807 88.8969 54.3365 89.6399 54.0135C90.3829 53.6743 91.2309 53.5047 92.1839 53.5047C93.6538 53.5047 94.841 53.8762 95.7455 54.6192C96.65 55.3622 97.1346 56.3798 97.1992 57.672H94.9944C94.946 56.9774 94.6633 56.4202 94.1464 56.0002C93.6457 55.5803 92.9673 55.3703 92.1112 55.3703C91.3198 55.3703 90.6898 55.5399 90.2214 55.8791C89.753 56.2183 89.5188 56.6625 89.5188 57.2117C89.5188 57.6478 89.6561 58.0112 89.9306 58.3019C90.2214 58.5765 90.5767 58.8027 90.9967 58.9803C91.4328 59.1419 92.0305 59.3276 92.7896 59.5376C93.7426 59.796 94.5179 60.0545 95.1156 60.3129C95.7132 60.5552 96.222 60.9267 96.642 61.4274C97.0781 61.9282 97.3042 62.5823 97.3204 63.3899C97.3204 64.1168 97.1185 64.771 96.7147 65.3525C96.3108 65.9339 95.7374 66.3943 94.9944 66.7335C94.2676 67.0565 93.4276 67.2181 92.4747 67.2181ZM112.547 59.8526C112.547 60.2725 112.523 60.7167 112.474 61.1851H101.862C101.943 62.4935 102.387 63.5192 103.195 64.2622C104.019 64.989 105.012 65.3525 106.175 65.3525C107.128 65.3525 107.919 65.1344 108.549 64.6983C109.195 64.246 109.648 63.6484 109.906 62.9054H112.281C111.925 64.1814 111.215 65.2232 110.148 66.0309C109.082 66.8223 107.758 67.2181 106.175 67.2181C104.915 67.2181 103.784 66.9354 102.783 66.3701C101.798 65.8047 101.022 65.0052 100.457 63.9714C99.8917 62.9215 99.609 61.7101 99.609 60.3371C99.609 58.9642 99.8836 57.7608 100.433 56.7271C100.982 55.6933 101.749 54.9019 102.734 54.3527C103.736 53.7874 104.883 53.5047 106.175 53.5047C107.435 53.5047 108.549 53.7793 109.518 54.3285C110.488 54.8776 111.231 55.6368 111.748 56.6059C112.281 57.5589 112.547 58.6411 112.547 59.8526ZM110.27 59.3922C110.27 58.5523 110.084 57.8335 109.712 57.2359C109.341 56.6221 108.832 56.1618 108.186 55.8549C107.556 55.5318 106.853 55.3703 106.078 55.3703C104.964 55.3703 104.011 55.7256 103.219 56.4363C102.444 57.147 102 58.1323 101.886 59.3922H110.27ZM118.147 55.5399V63.3657C118.147 64.0118 118.284 64.4722 118.559 64.7467C118.833 65.0052 119.31 65.1344 119.988 65.1344H121.611V67H119.625C118.397 67 117.476 66.7173 116.863 66.152C116.249 65.5867 115.942 64.6579 115.942 63.3657V55.5399H114.222V53.7227H115.942V50.3792H118.147V53.7227H121.611V55.5399H118.147ZM128.983 67.2181C127.966 67.2181 127.053 67.0485 126.245 66.7093C125.438 66.3539 124.8 65.8693 124.331 65.2555C123.863 64.6256 123.604 63.9068 123.556 63.0992H125.833C125.898 63.7614 126.205 64.3026 126.754 64.7225C127.319 65.1425 128.054 65.3525 128.959 65.3525C129.799 65.3525 130.461 65.1667 130.946 64.7952C131.43 64.4237 131.673 63.9553 131.673 63.3899C131.673 62.8085 131.414 62.3804 130.897 62.1058C130.38 61.8151 129.581 61.5324 128.499 61.2578C127.513 60.9994 126.706 60.741 126.076 60.4825C125.462 60.2079 124.929 59.8122 124.477 59.2953C124.041 58.7623 123.822 58.0677 123.822 57.2117C123.822 56.5333 124.024 55.9114 124.428 55.3461C124.832 54.7807 125.405 54.3365 126.148 54.0135C126.891 53.6743 127.739 53.5047 128.692 53.5047C130.162 53.5047 131.349 53.8762 132.254 54.6192C133.159 55.3622 133.643 56.3798 133.708 57.672H131.503C131.454 56.9774 131.172 56.4202 130.655 56.0002C130.154 55.5803 129.476 55.3703 128.62 55.3703C127.828 55.3703 127.198 55.5399 126.73 55.8791C126.261 56.2183 126.027 56.6625 126.027 57.2117C126.027 57.6478 126.165 58.0112 126.439 58.3019C126.73 58.5765 127.085 58.8027 127.505 58.9803C127.941 59.1419 128.539 59.3276 129.298 59.5376C130.251 59.796 131.026 60.0545 131.624 60.3129C132.222 60.5552 132.73 60.9267 133.15 61.4274C133.587 61.9282 133.813 62.5823 133.829 63.3899C133.829 64.1168 133.627 64.771 133.223 65.3525C132.819 65.9339 132.246 66.3943 131.503 66.7335C130.776 67.0565 129.936 67.2181 128.983 67.2181ZM41.8994 86.1127V96.7975C41.8994 98.2997 42.2628 99.4142 42.9897 100.141C43.7327 100.868 44.7584 101.231 46.0667 101.231C47.3589 101.231 48.3684 100.868 49.0953 100.141C49.8383 99.4142 50.2098 98.2997 50.2098 96.7975V86.1127H52.4146V96.7733C52.4146 98.1785 52.1319 99.3657 51.5666 100.335C51.0013 101.288 50.234 101.999 49.2649 102.467C48.3119 102.935 47.2378 103.17 46.0425 103.17C44.8472 103.17 43.765 102.935 42.7959 102.467C41.8429 101.999 41.0837 101.288 40.5184 100.335C39.9692 99.3657 39.6946 98.1785 39.6946 96.7733V86.1127H41.8994ZM58.782 91.5399V99.3657C58.782 100.012 58.9193 100.472 59.1939 100.747C59.4685 101.005 59.9449 101.134 60.6233 101.134H62.2467V103H60.2599C59.0323 103 58.1117 102.717 57.4979 102.152C56.8841 101.587 56.5772 100.658 56.5772 99.3657V91.5399H54.8569V89.7227H56.5772V86.3792H58.782V89.7227H62.2467V91.5399H58.782ZM66.0568 87.5664C65.6368 87.5664 65.2815 87.421 64.9907 87.1303C64.7 86.8395 64.5546 86.4842 64.5546 86.0642C64.5546 85.6443 64.7 85.2889 64.9907 84.9982C65.2815 84.7074 65.6368 84.5621 66.0568 84.5621C66.4606 84.5621 66.7998 84.7074 67.0744 84.9982C67.3651 85.2889 67.5105 85.6443 67.5105 86.0642C67.5105 86.4842 67.3651 86.8395 67.0744 87.1303C66.7998 87.421 66.4606 87.5664 66.0568 87.5664ZM67.1229 89.7227V103H64.9181V89.7227H67.1229ZM73.0854 85.0709V103H70.8806V85.0709H73.0854ZM77.9818 87.5664C77.5618 87.5664 77.2065 87.421 76.9157 87.1303C76.625 86.8395 76.4796 86.4842 76.4796 86.0642C76.4796 85.6443 76.625 85.2889 76.9157 84.9982C77.2065 84.7074 77.5618 84.5621 77.9818 84.5621C78.3856 84.5621 78.7248 84.7074 78.9994 84.9982C79.2901 85.2889 79.4355 85.6443 79.4355 86.0642C79.4355 86.4842 79.2901 86.8395 78.9994 87.1303C78.7248 87.421 78.3856 87.5664 77.9818 87.5664ZM79.0479 89.7227V103H76.8431V89.7227H79.0479ZM84.4531 101.183H90.9706V103H81.9333V101.183L88.3781 91.5157H81.9818V89.7227H90.9221V91.5157L84.4531 101.183ZM93.0077 96.3129C93.0077 94.9561 93.2823 93.7689 93.8315 92.7513C94.3806 91.7176 95.1317 90.918 96.0847 90.3527C97.0539 89.7874 98.128 89.5047 99.3071 89.5047C100.47 89.5047 101.48 89.755 102.336 90.2558C103.192 90.7565 103.83 91.3864 104.25 92.1456V89.7227H106.479V103H104.25V100.529C103.814 101.304 103.159 101.95 102.287 102.467C101.431 102.968 100.43 103.218 99.2829 103.218C98.1038 103.218 97.0377 102.927 96.0847 102.346C95.1317 101.764 94.3806 100.949 93.8315 99.8987C93.2823 98.8488 93.0077 97.6536 93.0077 96.3129ZM104.25 96.3371C104.25 95.3357 104.048 94.4635 103.644 93.7205C103.24 92.9774 102.691 92.4121 101.996 92.0245C101.318 91.6206 100.567 91.4187 99.7432 91.4187C98.9195 91.4187 98.1684 91.6126 97.49 92.0002C96.8116 92.3879 96.2705 92.9532 95.8667 93.6962C95.4628 94.4392 95.2609 95.3115 95.2609 96.3129C95.2609 97.3305 95.4628 98.2189 95.8667 98.9781C96.2705 99.7211 96.8116 100.294 97.49 100.698C98.1684 101.086 98.9195 101.28 99.7432 101.28C100.567 101.28 101.318 101.086 101.996 100.698C102.691 100.294 103.24 99.7211 103.644 98.9781C104.048 98.2189 104.25 97.3386 104.25 96.3371ZM112.894 91.5399V99.3657C112.894 100.012 113.031 100.472 113.306 100.747C113.581 101.005 114.057 101.134 114.735 101.134H116.359V103H114.372C113.144 103 112.224 102.717 111.61 102.152C110.996 101.587 110.689 100.658 110.689 99.3657V91.5399H108.969V89.7227H110.689V86.3792H112.894V89.7227H116.359V91.5399H112.894ZM120.169 87.5664C119.749 87.5664 119.394 87.421 119.103 87.1303C118.812 86.8395 118.667 86.4842 118.667 86.0642C118.667 85.6443 118.812 85.2889 119.103 84.9982C119.394 84.7074 119.749 84.5621 120.169 84.5621C120.573 84.5621 120.912 84.7074 121.186 84.9982C121.477 85.2889 121.623 85.6443 121.623 86.0642C121.623 86.4842 121.477 86.8395 121.186 87.1303C120.912 87.421 120.573 87.5664 120.169 87.5664ZM121.235 89.7227V103H119.03V89.7227H121.235ZM130.783 103.218C129.54 103.218 128.409 102.935 127.391 102.37C126.39 101.805 125.598 101.005 125.017 99.9714C124.452 98.9215 124.169 97.7101 124.169 96.3371C124.169 94.9803 124.46 93.7851 125.041 92.7513C125.639 91.7014 126.446 90.9019 127.464 90.3527C128.482 89.7874 129.62 89.5047 130.88 89.5047C132.14 89.5047 133.279 89.7874 134.296 90.3527C135.314 90.9019 136.114 91.6933 136.695 92.7271C137.293 93.7608 137.591 94.9642 137.591 96.3371C137.591 97.7101 137.285 98.9215 136.671 99.9714C136.073 101.005 135.257 101.805 134.224 102.37C133.19 102.935 132.043 103.218 130.783 103.218ZM130.783 101.28C131.575 101.28 132.318 101.094 133.012 100.723C133.707 100.351 134.264 99.7938 134.684 99.0507C135.12 98.3077 135.338 97.4032 135.338 96.3371C135.338 95.2711 135.128 94.3666 134.708 93.6235C134.288 92.8805 133.739 92.3314 133.061 91.976C132.382 91.6045 131.647 91.4187 130.856 91.4187C130.048 91.4187 129.305 91.6045 128.627 91.976C127.965 92.3314 127.432 92.8805 127.028 93.6235C126.624 94.3666 126.422 95.2711 126.422 96.3371C126.422 97.4194 126.616 98.332 127.004 99.075C127.407 99.818 127.94 100.375 128.603 100.747C129.265 101.102 129.992 101.28 130.783 101.28ZM146.959 89.4805C148.575 89.4805 149.883 89.9731 150.884 90.9584C151.886 91.9275 152.387 93.3328 152.387 95.1742V103H150.206V95.4891C150.206 94.1646 149.875 93.1551 149.213 92.4606C148.55 91.7499 147.646 91.3945 146.499 91.3945C145.336 91.3945 144.407 91.7579 143.713 92.4848C143.034 93.2117 142.695 94.2696 142.695 95.6587V103H140.49V89.7227H142.695V91.6126C143.131 90.9342 143.721 90.4092 144.464 90.0377C145.223 89.6662 146.055 89.4805 146.959 89.4805Z" fill="black"/>
<path d="M195.2 33.6C192.124 33.6 189.173 34.8221 186.998 36.9976C184.822 39.173 183.6 42.1235 183.6 45.2V103.2C183.6 106.277 184.822 109.227 186.998 111.402C189.173 113.578 192.124 114.8 195.2 114.8H226.961C227.842 111.894 229.432 109.244 231.589 107.086L242.29 96.3792C241.844 95.8551 241.599 95.1886 241.6 94.5V53.9C241.6 53.1309 241.906 52.3932 242.449 51.8494C242.993 51.3055 243.731 51 244.5 51C245.269 51 246.007 51.3055 246.551 51.8494C247.095 52.3932 247.4 53.1309 247.4 53.9V91.2752L259.597 79.0778C261.14 77.535 262.909 76.3518 264.8 75.5456V45.2C264.8 42.1235 263.578 39.173 261.403 36.9976C259.227 34.8221 256.277 33.6 253.2 33.6H195.2ZM224.2 74.2C224.969 74.2 225.707 74.5055 226.251 75.0494C226.795 75.5932 227.1 76.3309 227.1 77.1V94.5C227.1 95.2691 226.795 96.0068 226.251 96.5506C225.707 97.0945 224.969 97.4 224.2 97.4C223.431 97.4 222.693 97.0945 222.149 96.5506C221.606 96.0068 221.3 95.2691 221.3 94.5V77.1C221.3 76.3309 221.606 75.5932 222.149 75.0494C222.693 74.5055 223.431 74.2 224.2 74.2ZM201 65.5C201 64.7309 201.306 63.9932 201.849 63.4494C202.393 62.9055 203.131 62.6 203.9 62.6C204.669 62.6 205.407 62.9055 205.951 63.4494C206.495 63.9932 206.8 64.7309 206.8 65.5V94.5C206.8 95.2691 206.495 96.0068 205.951 96.5506C205.407 97.0945 204.669 97.4 203.9 97.4C203.131 97.4 202.393 97.0945 201.849 96.5506C201.306 96.0068 201 95.2691 201 94.5V65.5ZM235.684 111.187L263.698 83.1726C265.733 81.1383 268.493 79.9957 271.371 79.9962C274.248 79.9968 277.008 81.1404 279.042 83.1755C281.076 85.2106 282.219 87.9705 282.218 90.8481C282.218 93.7256 281.074 96.4851 279.039 98.5194L251.025 126.528C249.393 128.16 247.348 129.319 245.109 129.88L236.421 132.049C235.557 132.264 234.652 132.253 233.794 132.015C232.936 131.777 232.154 131.321 231.524 130.692C230.894 130.063 230.438 129.281 230.199 128.424C229.961 127.566 229.948 126.661 230.162 125.797L232.337 117.108C232.894 114.87 234.054 112.816 235.69 111.192L235.684 111.187Z" fill="#003B5E"/>
</svg>
