<svg width="300" height="150" viewBox="0 0 300 150" fill="none" xmlns="http://www.w3.org/2000/svg">
<path d="M0 10C0 4.47715 4.47715 0 10 0H287C292.523 0 297 4.47715 297 10V140C297 145.523 292.523 150 287 150H9.99999C4.47715 150 0 145.523 0 140V10Z" fill="#F5F5F5"/>
<path d="M40.8675 83L36.8456 76.0949H34.1804V83H31.9756V66.1127H37.4271C38.7031 66.1127 39.7772 66.3307 40.6495 66.7669C41.5378 67.203 42.2001 67.7925 42.6362 68.5355C43.0723 69.2786 43.2904 70.1266 43.2904 71.0795C43.2904 72.2425 42.9512 73.2682 42.2728 74.1566C41.6105 75.045 40.6091 75.6345 39.2684 75.9253L43.5084 83H40.8675ZM34.1804 74.3262H37.4271C38.6223 74.3262 39.5188 74.0354 40.1164 73.4539C40.7141 72.8563 41.0129 72.0648 41.0129 71.0795C41.0129 70.0781 40.7141 69.3028 40.1164 68.7536C39.535 68.2044 38.6385 67.9298 37.4271 67.9298H34.1804V74.3262ZM58.8306 75.8526C58.8306 76.2725 58.8063 76.7167 58.7579 77.1851H48.1458C48.2265 78.4935 48.6707 79.5192 49.4783 80.2622C50.3021 80.989 51.2955 81.3525 52.4584 81.3525C53.4114 81.3525 54.2029 81.1344 54.8328 80.6983C55.4789 80.246 55.9312 79.6484 56.1896 78.9054H58.564C58.2087 80.1814 57.498 81.2232 56.4319 82.0309C55.3659 82.8223 54.0414 83.2181 52.4584 83.2181C51.1986 83.2181 50.0679 82.9354 49.0664 82.3701C48.0811 81.8047 47.3058 81.0052 46.7405 79.9714C46.1752 78.9215 45.8925 77.7101 45.8925 76.3371C45.8925 74.9642 46.1671 73.7608 46.7163 72.7271C47.2654 71.6933 48.0327 70.9019 49.018 70.3527C50.0194 69.7874 51.1662 69.5047 52.4584 69.5047C53.7183 69.5047 54.8328 69.7793 55.802 70.3285C56.7711 70.8776 57.5141 71.6368 58.031 72.6059C58.564 73.5589 58.8306 74.6411 58.8306 75.8526ZM56.5531 75.3922C56.5531 74.5523 56.3673 73.8335 55.9958 73.2359C55.6243 72.6221 55.1155 72.1618 54.4694 71.8549C53.8395 71.5318 53.1368 71.3703 52.3615 71.3703C51.247 71.3703 50.294 71.7256 49.5026 72.4363C48.7272 73.147 48.283 74.1323 48.17 75.3922H56.5531ZM67.2165 69.5047C68.3633 69.5047 69.3647 69.755 70.2208 70.2558C71.0931 70.7565 71.7391 71.3864 72.1591 72.1456V69.7227H74.3881V83.2907C74.3881 84.5022 74.1297 85.5763 73.6128 86.5131C73.0959 87.4661 72.3529 88.2091 71.3838 88.7422C70.4308 89.2752 69.3163 89.5417 68.0403 89.5417C66.2958 89.5417 64.8421 89.1298 63.6791 88.3061C62.5161 87.4823 61.8297 86.3597 61.6197 84.9383H63.8003C64.0425 85.7459 64.5433 86.392 65.3024 86.8766C66.0616 87.3773 66.9742 87.6277 68.0403 87.6277C69.2517 87.6277 70.237 87.2481 70.9961 86.4889C71.7715 85.7298 72.1591 84.6637 72.1591 83.2907V80.5045C71.723 81.2798 71.0769 81.9259 70.2208 82.4427C69.3647 82.9596 68.3633 83.2181 67.2165 83.2181C66.0374 83.2181 64.9632 82.9273 63.9941 82.3458C63.0411 81.7643 62.29 80.9486 61.7408 79.8987C61.1916 78.8488 60.917 77.6536 60.917 76.3129C60.917 74.9561 61.1916 73.7689 61.7408 72.7513C62.29 71.7176 63.0411 70.918 63.9941 70.3527C64.9632 69.7874 66.0374 69.5047 67.2165 69.5047ZM72.1591 76.3371C72.1591 75.3357 71.9572 74.4635 71.5534 73.7205C71.1496 72.9774 70.6004 72.4121 69.9059 72.0245C69.2275 71.6206 68.4764 71.4187 67.6526 71.4187C66.8288 71.4187 66.0777 71.6126 65.3993 72.0002C64.7209 72.3879 64.1798 72.9532 63.776 73.6962C63.3722 74.4392 63.1703 75.3115 63.1703 76.3129C63.1703 77.3305 63.3722 78.2189 63.776 78.9781C64.1798 79.7211 64.7209 80.2945 65.3993 80.6983C66.0777 81.0859 66.8288 81.2798 67.6526 81.2798C68.4764 81.2798 69.2275 81.0859 69.9059 80.6983C70.6004 80.2945 71.1496 79.7211 71.5534 78.9781C71.9572 78.2189 72.1591 77.3386 72.1591 76.3371ZM79.2528 67.5664C78.8328 67.5664 78.4775 67.421 78.1867 67.1303C77.896 66.8395 77.7506 66.4842 77.7506 66.0642C77.7506 65.6443 77.896 65.2889 78.1867 64.9982C78.4775 64.7074 78.8328 64.5621 79.2528 64.5621C79.6566 64.5621 79.9958 64.7074 80.2704 64.9982C80.5611 65.2889 80.7065 65.6443 80.7065 66.0642C80.7065 66.4842 80.5611 66.8395 80.2704 67.1303C79.9958 67.421 79.6566 67.5664 79.2528 67.5664ZM80.3188 69.7227V83H78.114V69.7227H80.3188ZM88.7769 83.2181C87.7593 83.2181 86.8467 83.0485 86.0391 82.7093C85.2314 82.3539 84.5934 81.8693 84.125 81.2555C83.6566 80.6256 83.3981 79.9068 83.3497 79.0992H85.6272C85.6918 79.7614 85.9987 80.3026 86.5479 80.7225C87.1132 81.1425 87.8481 81.3525 88.7527 81.3525C89.5926 81.3525 90.2548 81.1667 90.7394 80.7952C91.224 80.4237 91.4663 79.9553 91.4663 79.3899C91.4663 78.8085 91.2078 78.3804 90.6909 78.1058C90.1741 77.8151 89.3745 77.5324 88.2923 77.2578C87.307 76.9994 86.4994 76.741 85.8695 76.4825C85.2557 76.2079 84.7226 75.8122 84.2704 75.2953C83.8343 74.7623 83.6162 74.0677 83.6162 73.2117C83.6162 72.5333 83.8181 71.9114 84.2219 71.3461C84.6257 70.7807 85.1991 70.3365 85.9421 70.0135C86.6851 69.6743 87.5331 69.5047 88.4861 69.5047C89.956 69.5047 91.1432 69.8762 92.0477 70.6192C92.9523 71.3622 93.4368 72.3798 93.5015 73.672H91.2967C91.2482 72.9774 90.9655 72.4202 90.4487 72.0002C89.9479 71.5803 89.2695 71.3703 88.4135 71.3703C87.622 71.3703 86.992 71.5399 86.5236 71.8791C86.0552 72.2183 85.821 72.6625 85.821 73.2117C85.821 73.6478 85.9583 74.0112 86.2329 74.3019C86.5236 74.5765 86.879 74.8027 87.2989 74.9803C87.7351 75.1419 88.3327 75.3276 89.0919 75.5376C90.0448 75.796 90.8202 76.0545 91.4178 76.3129C92.0154 76.5552 92.5242 76.9267 92.9442 77.4274C93.3803 77.9282 93.6064 78.5823 93.6226 79.3899C93.6226 80.1168 93.4207 80.771 93.0169 81.3525C92.6131 81.9339 92.0397 82.3943 91.2967 82.7335C90.5698 83.0565 89.7299 83.2181 88.7769 83.2181ZM99.4244 71.5399V79.3657C99.4244 80.0118 99.5617 80.4722 99.8363 80.7467C100.111 81.0052 100.587 81.1344 101.266 81.1344H102.889V83H100.902C99.6747 83 98.7541 82.7173 98.1403 82.152C97.5265 81.5867 97.2196 80.6579 97.2196 79.3657V71.5399H95.4994V69.7227H97.2196V66.3792H99.4244V69.7227H102.889V71.5399H99.4244ZM107.765 71.8791C108.153 71.1199 108.702 70.5304 109.413 70.1104C110.14 69.6904 111.02 69.4805 112.054 69.4805V71.7579H111.472C109.001 71.7579 107.765 73.0986 107.765 75.7799V83H105.56V69.7227H107.765V71.8791ZM113.775 76.3129C113.775 74.9561 114.05 73.7689 114.599 72.7513C115.148 71.7176 115.899 70.918 116.852 70.3527C117.821 69.7874 118.895 69.5047 120.075 69.5047C121.237 69.5047 122.247 69.755 123.103 70.2558C123.959 70.7565 124.597 71.3864 125.017 72.1456V69.7227H127.246V83H125.017V80.5287C124.581 81.304 123.927 81.9501 123.055 82.467C122.199 82.9677 121.197 83.2181 120.05 83.2181C118.871 83.2181 117.805 82.9273 116.852 82.3458C115.899 81.7643 115.148 80.9486 114.599 79.8987C114.05 78.8488 113.775 77.6536 113.775 76.3129ZM125.017 76.3371C125.017 75.3357 124.815 74.4635 124.411 73.7205C124.008 72.9774 123.458 72.4121 122.764 72.0245C122.085 71.6206 121.334 71.4187 120.511 71.4187C119.687 71.4187 118.936 71.6126 118.257 72.0002C117.579 72.3879 117.038 72.9532 116.634 73.6962C116.23 74.4392 116.028 75.3115 116.028 76.3129C116.028 77.3305 116.23 78.2189 116.634 78.9781C117.038 79.7211 117.579 80.2945 118.257 80.6983C118.936 81.0859 119.687 81.2798 120.511 81.2798C121.334 81.2798 122.085 81.0859 122.764 80.6983C123.458 80.2945 124.008 79.7211 124.411 78.9781C124.815 78.2189 125.017 77.3386 125.017 76.3371ZM133.661 71.5399V79.3657C133.661 80.0118 133.799 80.4722 134.073 80.7467C134.348 81.0052 134.824 81.1344 135.503 81.1344H137.126V83H135.139C133.912 83 132.991 82.7173 132.377 82.152C131.764 81.5867 131.457 80.6579 131.457 79.3657V71.5399H129.736V69.7227H131.457V66.3792H133.661V69.7227H137.126V71.5399H133.661ZM140.936 67.5664C140.516 67.5664 140.161 67.421 139.87 67.1303C139.579 66.8395 139.434 66.4842 139.434 66.0642C139.434 65.6443 139.579 65.2889 139.87 64.9982C140.161 64.7074 140.516 64.5621 140.936 64.5621C141.34 64.5621 141.679 64.7074 141.954 64.9982C142.245 65.2889 142.39 65.6443 142.39 66.0642C142.39 66.4842 142.245 66.8395 141.954 67.1303C141.679 67.421 141.34 67.5664 140.936 67.5664ZM142.002 69.7227V83H139.798V69.7227H142.002ZM151.551 83.2181C150.307 83.2181 149.176 82.9354 148.159 82.3701C147.157 81.8047 146.366 81.0052 145.784 79.9714C145.219 78.9215 144.936 77.7101 144.936 76.3371C144.936 74.9803 145.227 73.7851 145.808 72.7513C146.406 71.7014 147.214 70.9019 148.231 70.3527C149.249 69.7874 150.388 69.5047 151.648 69.5047C152.907 69.5047 154.046 69.7874 155.064 70.3527C156.081 70.9019 156.881 71.6933 157.462 72.7271C158.06 73.7608 158.359 74.9642 158.359 76.3371C158.359 77.7101 158.052 78.9215 157.438 79.9714C156.841 81.0052 156.025 81.8047 154.991 82.3701C153.957 82.9354 152.811 83.2181 151.551 83.2181ZM151.551 81.2798C152.342 81.2798 153.085 81.094 153.78 80.7225C154.474 80.351 155.031 79.7938 155.451 79.0507C155.888 78.3077 156.106 77.4032 156.106 76.3371C156.106 75.2711 155.896 74.3666 155.476 73.6235C155.056 72.8805 154.507 72.3314 153.828 71.976C153.15 71.6045 152.415 71.4187 151.623 71.4187C150.816 71.4187 150.073 71.6045 149.394 71.976C148.732 72.3314 148.199 72.8805 147.795 73.6235C147.391 74.3666 147.189 75.2711 147.189 76.3371C147.189 77.4194 147.383 78.332 147.771 79.075C148.175 79.818 148.708 80.3752 149.37 80.7467C150.032 81.1021 150.759 81.2798 151.551 81.2798ZM167.727 69.4805C169.342 69.4805 170.65 69.9731 171.652 70.9584C172.653 71.9275 173.154 73.3328 173.154 75.1742V83H170.973V75.4891C170.973 74.1646 170.642 73.1551 169.98 72.4606C169.318 71.7499 168.413 71.3945 167.266 71.3945C166.103 71.3945 165.175 71.7579 164.48 72.4848C163.802 73.2117 163.463 74.2696 163.463 75.6587V83H161.258V69.7227H163.463V71.6126C163.899 70.9342 164.488 70.4092 165.231 70.0377C165.99 69.6662 166.822 69.4805 167.727 69.4805Z" fill="black"/>
<path d="M285.114 109.414C282.896 107.135 256.023 96.2852 251.147 94.2385C246.296 92.2275 244.361 86.655 244.361 86.655C244.361 86.655 242.177 87.9152 242.177 84.3759C242.177 80.8322 244.361 86.655 246.544 72.9896C246.544 72.9896 252.602 71.2155 251.399 56.5446H249.944C249.944 56.5446 253.583 40.8593 249.944 35.5504C246.292 30.2415 244.862 26.7023 236.843 24.164C228.837 21.6302 231.748 22.1352 225.934 22.3944C220.112 22.6491 215.266 25.9381 215.266 27.7033C215.266 27.7033 211.626 27.958 210.179 29.4773C208.724 30.9967 206.301 38.0752 206.301 39.8448C206.301 41.6145 207.512 53.5192 208.724 56.0396L207.281 56.5312C206.069 71.2065 212.127 72.9851 212.127 72.9851C214.311 86.6505 216.494 80.8278 216.494 84.3715C216.494 87.9107 214.311 86.6505 214.311 86.6505C214.311 86.6505 212.371 92.2186 207.525 94.234C202.679 96.2583 175.775 107.135 173.588 109.41C171.404 111.734 171.648 122.351 171.648 122.351H287.045C287.045 122.351 287.315 111.725 285.106 109.405L285.114 109.414ZM257.992 119.469H238.461V113.883H257.992V119.469Z" fill="#003B5E"/>
</svg>
