<svg width="292" height="150" viewBox="0 0 292 150" fill="none" xmlns="http://www.w3.org/2000/svg">
<path d="M0 10C0 4.47715 4.47715 0 10 0H279C284.523 0 289 4.47715 289 10V136C289 141.523 284.523 146 279 146H9.99999C4.47714 146 0 141.523 0 136V10Z" fill="#F5F5F5"/>
<path d="M60.0487 66.1696C58.9342 66.1696 57.9327 65.9758 57.0443 65.5881C56.1721 65.1843 55.4856 64.6351 54.9849 63.9406C54.4842 63.2299 54.2257 62.4142 54.2096 61.4935H56.5598C56.6405 62.285 56.9636 62.9553 57.5289 63.5045C58.1104 64.0375 58.9503 64.304 60.0487 64.304C61.0986 64.304 61.9224 64.0456 62.52 63.5287C63.1338 62.9957 63.4407 62.3173 63.4407 61.4935C63.4407 60.8474 63.263 60.3224 62.9077 59.9186C62.5523 59.5148 62.1081 59.2079 61.5751 58.9979C61.0421 58.788 60.3233 58.5618 59.4187 58.3195C58.3042 58.0288 57.4078 57.7381 56.7294 57.4473C56.0671 57.1566 55.4937 56.7043 55.0091 56.0905C54.5407 55.4606 54.3065 54.6206 54.3065 53.5707C54.3065 52.6501 54.5407 51.8344 55.0091 51.1237C55.4776 50.413 56.1317 49.8638 56.9717 49.4761C57.8277 49.0885 58.8049 48.8946 59.9033 48.8946C61.4862 48.8946 62.7784 49.2904 63.7799 50.0818C64.7975 50.8733 65.3709 51.9232 65.5001 53.2315H63.0773C62.9965 52.5854 62.6573 52.0201 62.0597 51.5355C61.462 51.0348 60.6705 50.7845 59.6853 50.7845C58.7646 50.7845 58.0135 51.0267 57.432 51.5113C56.8505 51.9797 56.5598 52.642 56.5598 53.4981C56.5598 54.1118 56.7294 54.6126 57.0686 55.0002C57.4239 55.3879 57.852 55.6867 58.3527 55.8967C58.8696 56.0905 59.5883 56.3166 60.509 56.5751C61.6235 56.882 62.52 57.1889 63.1984 57.4958C63.8768 57.7865 64.4583 58.2469 64.9429 58.8768C65.4274 59.4906 65.6697 60.3305 65.6697 61.3966C65.6697 62.2203 65.4517 62.9957 65.0155 63.7225C64.5794 64.4494 63.9333 65.0389 63.0773 65.4912C62.2212 65.9435 61.2117 66.1696 60.0487 66.1696ZM80.3501 52.7227L72.3547 72.251H70.0772L72.6939 65.8546L67.3394 52.7227H69.7865L73.9538 63.4802L78.0727 52.7227H80.3501ZM87.2668 66.2181C86.2492 66.2181 85.3366 66.0485 84.529 65.7093C83.7214 65.3539 83.0834 64.8693 82.6149 64.2555C82.1465 63.6256 81.8881 62.9068 81.8396 62.0992H84.1171C84.1817 62.7614 84.4886 63.3026 85.0378 63.7225C85.6031 64.1425 86.3381 64.3525 87.2426 64.3525C88.0825 64.3525 88.7448 64.1667 89.2293 63.7952C89.7139 63.4237 89.9562 62.9553 89.9562 62.3899C89.9562 61.8085 89.6978 61.3804 89.1809 61.1058C88.664 60.8151 87.8645 60.5324 86.7823 60.2578C85.797 59.9994 84.9893 59.741 84.3594 59.4825C83.7456 59.2079 83.2126 58.8122 82.7603 58.2953C82.3242 57.7623 82.1061 57.0677 82.1061 56.2117C82.1061 55.5333 82.3081 54.9114 82.7119 54.3461C83.1157 53.7807 83.6891 53.3365 84.4321 53.0135C85.1751 52.6743 86.0231 52.5047 86.9761 52.5047C88.446 52.5047 89.6332 52.8762 90.5377 53.6192C91.4422 54.3622 91.9268 55.3798 91.9914 56.672H89.7866C89.7381 55.9774 89.4555 55.4202 88.9386 55.0002C88.4379 54.5803 87.7595 54.3703 86.9034 54.3703C86.1119 54.3703 85.482 54.5399 85.0136 54.8791C84.5452 55.2183 84.3109 55.6625 84.3109 56.2117C84.3109 56.6478 84.4482 57.0112 84.7228 57.3019C85.0136 57.5765 85.3689 57.8027 85.7889 57.9803C86.225 58.1419 86.8226 58.3276 87.5818 58.5376C88.5348 58.796 89.3101 59.0545 89.9077 59.3129C90.5054 59.5552 91.0142 59.9267 91.4341 60.4274C91.8703 60.9282 92.0964 61.5823 92.1125 62.3899C92.1125 63.1168 91.9106 63.771 91.5068 64.3525C91.103 64.9339 90.5296 65.3943 89.7866 65.7335C89.0597 66.0565 88.2198 66.2181 87.2668 66.2181ZM97.9143 54.5399V62.3657C97.9143 63.0118 98.0516 63.4722 98.3262 63.7467C98.6008 64.0052 99.0773 64.1344 99.7557 64.1344H101.379V66H99.3923C98.1647 66 97.244 65.7173 96.6302 65.152C96.0164 64.5867 95.7095 63.6579 95.7095 62.3657V54.5399H93.9893V52.7227H95.7095V49.3792H97.9143V52.7227H101.379V54.5399H97.9143ZM116.165 58.8526C116.165 59.2725 116.14 59.7167 116.092 60.1851H105.48C105.561 61.4935 106.005 62.5192 106.812 63.2622C107.636 63.989 108.63 64.3525 109.793 64.3525C110.746 64.3525 111.537 64.1344 112.167 63.6983C112.813 63.246 113.265 62.6484 113.524 61.9054H115.898C115.543 63.1814 114.832 64.2232 113.766 65.0309C112.7 65.8223 111.376 66.2181 109.793 66.2181C108.533 66.2181 107.402 65.9354 106.401 65.3701C105.415 64.8047 104.64 64.0052 104.075 62.9714C103.509 61.9215 103.227 60.7101 103.227 59.3371C103.227 57.9642 103.501 56.7608 104.05 55.7271C104.6 54.6933 105.367 53.9019 106.352 53.3527C107.354 52.7874 108.5 52.5047 109.793 52.5047C111.052 52.5047 112.167 52.7793 113.136 53.3285C114.105 53.8776 114.848 54.6368 115.365 55.6059C115.898 56.5589 116.165 57.6411 116.165 58.8526ZM113.887 58.3922C113.887 57.5523 113.701 56.8335 113.33 56.2359C112.958 55.6221 112.45 55.1618 111.804 54.8549C111.174 54.5318 110.471 54.3703 109.696 54.3703C108.581 54.3703 107.628 54.7256 106.837 55.4363C106.061 56.147 105.617 57.1323 105.504 58.3922H113.887ZM135.042 52.4805C136.075 52.4805 136.996 52.6985 137.804 53.1346C138.611 53.5546 139.249 54.1926 139.718 55.0487C140.186 55.9048 140.42 56.9466 140.42 58.1742V66H138.24V58.4891C138.24 57.1646 137.909 56.1551 137.246 55.4606C136.6 54.7499 135.72 54.3945 134.605 54.3945C133.459 54.3945 132.546 54.766 131.868 55.509C131.189 56.2359 130.85 57.2939 130.85 58.683V66H128.669V58.4891C128.669 57.1646 128.338 56.1551 127.676 55.4606C127.03 54.7499 126.15 54.3945 125.035 54.3945C123.888 54.3945 122.976 54.766 122.297 55.509C121.619 56.2359 121.28 57.2939 121.28 58.683V66H119.075V52.7227H121.28V54.6368C121.716 53.9422 122.297 53.4092 123.024 53.0377C123.767 52.6662 124.583 52.4805 125.471 52.4805C126.586 52.4805 127.571 52.7308 128.427 53.2315C129.283 53.7323 129.921 54.4672 130.341 55.4363C130.713 54.4995 131.327 53.7726 132.183 53.2558C133.039 52.7389 133.992 52.4805 135.042 52.4805ZM73.1469 85.1127V102H70.9421V94.3438H62.3409V102H60.1361V85.1127H62.3409V92.5266H70.9421V85.1127H73.1469ZM89.0259 94.8526C89.0259 95.2725 89.0016 95.7167 88.9532 96.1851H78.3411C78.4218 97.4935 78.866 98.5192 79.6736 99.2622C80.4974 99.989 81.4908 100.352 82.6538 100.352C83.6067 100.352 84.3982 100.134 85.0282 99.6983C85.6743 99.246 86.1265 98.6484 86.385 97.9054H88.7594C88.404 99.1814 87.6933 100.223 86.6272 101.031C85.5612 101.822 84.2367 102.218 82.6538 102.218C81.3939 102.218 80.2632 101.935 79.2618 101.37C78.2765 100.805 77.5011 100.005 76.9358 98.9714C76.3705 97.9215 76.0878 96.7101 76.0878 95.3371C76.0878 93.9642 76.3624 92.7608 76.9116 91.7271C77.4608 90.6933 78.228 89.9019 79.2133 89.3527C80.2147 88.7874 81.3616 88.5047 82.6538 88.5047C83.9136 88.5047 85.0282 88.7793 85.9973 89.3285C86.9664 89.8776 87.7095 90.6368 88.2263 91.6059C88.7594 92.5589 89.0259 93.6411 89.0259 94.8526ZM86.7484 94.3922C86.7484 93.5523 86.5626 92.8335 86.1911 92.2359C85.8196 91.6221 85.3108 91.1618 84.6647 90.8549C84.0348 90.5318 83.3322 90.3703 82.5568 90.3703C81.4423 90.3703 80.4893 90.7256 79.6979 91.4363C78.9226 92.147 78.4784 93.1323 78.3653 94.3922H86.7484ZM91.1124 95.3129C91.1124 93.9561 91.387 92.7689 91.9361 91.7513C92.4853 90.7176 93.2364 89.918 94.1894 89.3527C95.1585 88.7874 96.2327 88.5047 97.4118 88.5047C98.5748 88.5047 99.5843 88.755 100.44 89.2558C101.296 89.7565 101.934 90.3864 102.354 91.1456V88.7227H104.583V102H102.354V99.5287C101.918 100.304 101.264 100.95 100.392 101.467C99.5358 101.968 98.5344 102.218 97.3876 102.218C96.2084 102.218 95.1424 101.927 94.1894 101.346C93.2364 100.764 92.4853 99.9486 91.9361 98.8987C91.387 97.8488 91.1124 96.6536 91.1124 95.3129ZM102.354 95.3371C102.354 94.3357 102.153 93.4635 101.749 92.7205C101.345 91.9774 100.796 91.4121 100.101 91.0245C99.4228 90.6206 98.6717 90.4187 97.8479 90.4187C97.0241 90.4187 96.2731 90.6126 95.5947 91.0002C94.9163 91.3879 94.3752 91.9532 93.9713 92.6962C93.5675 93.4392 93.3656 94.3115 93.3656 95.3129C93.3656 96.3305 93.5675 97.2189 93.9713 97.9781C94.3752 98.7211 94.9163 99.2945 95.5947 99.6983C96.2731 100.086 97.0241 100.28 97.8479 100.28C98.6717 100.28 99.4228 100.086 100.101 99.6983C100.796 99.2945 101.345 98.7211 101.749 97.9781C102.153 97.2189 102.354 96.3386 102.354 95.3371ZM110.514 84.0709V102H108.309V84.0709H110.514ZM116.961 90.5399V98.3657C116.961 99.0118 117.099 99.4722 117.373 99.7467C117.648 100.005 118.124 100.134 118.803 100.134H120.426V102H118.439C117.212 102 116.291 101.717 115.677 101.152C115.063 100.587 114.756 99.6579 114.756 98.3657V90.5399H113.036V88.7227H114.756V85.3792H116.961V88.7227H120.426V90.5399H116.961ZM129.687 88.4805C130.689 88.4805 131.593 88.6985 132.401 89.1346C133.209 89.5546 133.839 90.1926 134.291 91.0487C134.759 91.9048 134.994 92.9466 134.994 94.1742V102H132.813V94.4891C132.813 93.1646 132.482 92.1551 131.82 91.4606C131.157 90.7499 130.253 90.3945 129.106 90.3945C127.943 90.3945 127.014 90.7579 126.32 91.4848C125.641 92.2117 125.302 93.2696 125.302 94.6587V102H123.097V84.0709H125.302V90.6126C125.738 89.9342 126.336 89.4092 127.095 89.0377C127.87 88.6662 128.734 88.4805 129.687 88.4805Z" fill="black"/>
<path d="M216.062 84H202V66H216.062V51H232.938V66H247V84H232.938V99H216.062V84ZM224.5 18L179.5 36V72.54C179.5 102.84 198.681 131.1 224.5 138C250.319 131.1 269.5 102.84 269.5 72.54V36L224.5 18Z" fill="#003B5E"/>
</svg>
