<svg width="300" height="150" viewBox="0 0 300 150" fill="none" xmlns="http://www.w3.org/2000/svg">
<path d="M0 10C0 4.47715 4.47715 0 10 0H290C295.523 0 300 4.47715 300 10V140C300 145.523 295.523 150 290 150H10C4.47716 150 0 145.523 0 140V10Z" fill="#F5F5F5"/>
<path d="M53.3275 50.1127V60.7975C53.3275 62.2997 53.691 63.4142 54.4178 64.141C55.1608 64.8679 56.1865 65.2313 57.4948 65.2313C58.787 65.2313 59.7966 64.8679 60.5234 64.141C61.2664 63.4142 61.6379 62.2997 61.6379 60.7975V50.1127H63.8427V60.7733C63.8427 62.1785 63.5601 63.3657 62.9947 64.3349C62.4294 65.2878 61.6622 65.9986 60.693 66.467C59.74 66.9354 58.6659 67.1696 57.4706 67.1696C56.2753 67.1696 55.1931 66.9354 54.224 66.467C53.271 65.9986 52.5118 65.2878 51.9465 64.3349C51.3973 63.3657 51.1227 62.1785 51.1227 60.7733V50.1127H53.3275ZM69.7255 56.1698C70.1617 55.4107 70.8077 54.7807 71.6638 54.28C72.5361 53.7631 73.5456 53.5047 74.6924 53.5047C75.8715 53.5047 76.9376 53.7874 77.8906 54.3527C78.8597 54.918 79.6189 55.7176 80.1681 56.7513C80.7172 57.7689 80.9918 58.9561 80.9918 60.3129C80.9918 61.6536 80.7172 62.8488 80.1681 63.8987C79.6189 64.9486 78.8597 65.7643 77.8906 66.3458C76.9376 66.9273 75.8715 67.2181 74.6924 67.2181C73.5617 67.2181 72.5603 66.9677 71.6881 66.467C70.832 65.9501 70.1778 65.3121 69.7255 64.5529V73.2994H67.5207V53.7227H69.7255V56.1698ZM78.7386 60.3129C78.7386 59.3115 78.5367 58.4392 78.1329 57.6962C77.729 56.9532 77.1799 56.3879 76.4853 56.0002C75.8069 55.6126 75.0558 55.4187 74.2321 55.4187C73.4244 55.4187 72.6733 55.6206 71.9788 56.0245C71.3004 56.4121 70.7512 56.9855 70.3313 57.7447C69.9274 58.4877 69.7255 59.3518 69.7255 60.3371C69.7255 61.3386 69.9274 62.2189 70.3313 62.9781C70.7512 63.7211 71.3004 64.2945 71.9788 64.6983C72.6733 65.0859 73.4244 65.2798 74.2321 65.2798C75.0558 65.2798 75.8069 65.0859 76.4853 64.6983C77.1799 64.2945 77.729 63.7211 78.1329 62.9781C78.5367 62.2189 78.7386 61.3305 78.7386 60.3129ZM86.0988 49.0709V67H83.894V49.0709H86.0988ZM95.6471 67.2181C94.4033 67.2181 93.2727 66.9354 92.2551 66.3701C91.2536 65.8047 90.4622 65.0052 89.8807 63.9714C89.3153 62.9215 89.0327 61.7101 89.0327 60.3371C89.0327 58.9803 89.3234 57.7851 89.9049 56.7513C90.5025 55.7014 91.3102 54.9019 92.3278 54.3527C93.3454 53.7874 94.4841 53.5047 95.744 53.5047C97.0039 53.5047 98.1426 53.7874 99.1602 54.3527C100.178 54.9019 100.977 55.6933 101.559 56.7271C102.156 57.7608 102.455 58.9642 102.455 60.3371C102.455 61.7101 102.148 62.9215 101.535 63.9714C100.937 65.0052 100.121 65.8047 99.0875 66.3701C98.0538 66.9354 96.907 67.2181 95.6471 67.2181ZM95.6471 65.2798C96.4385 65.2798 97.1816 65.094 97.8761 64.7225C98.5707 64.351 99.1279 63.7938 99.5479 63.0507C99.984 62.3077 100.202 61.4032 100.202 60.3371C100.202 59.2711 99.9921 58.3666 99.5721 57.6235C99.1521 56.8805 98.603 56.3314 97.9246 55.976C97.2462 55.6045 96.5112 55.4187 95.7198 55.4187C94.9121 55.4187 94.1691 55.6045 93.4907 55.976C92.8285 56.3314 92.2955 56.8805 91.8916 57.6235C91.4878 58.3666 91.2859 59.2711 91.2859 60.3371C91.2859 61.4194 91.4798 62.332 91.8674 63.075C92.2712 63.818 92.8043 64.3752 93.4665 64.7467C94.1288 65.1021 94.8556 65.2798 95.6471 65.2798ZM104.53 60.3129C104.53 58.9561 104.805 57.7689 105.354 56.7513C105.903 55.7176 106.654 54.918 107.607 54.3527C108.577 53.7874 109.651 53.5047 110.83 53.5047C111.993 53.5047 113.002 53.755 113.858 54.2558C114.715 54.7565 115.353 55.3864 115.773 56.1456V53.7227H118.002V67H115.773V64.5287C115.336 65.304 114.682 65.9501 113.81 66.467C112.954 66.9677 111.952 67.2181 110.806 67.2181C109.627 67.2181 108.56 66.9273 107.607 66.3458C106.654 65.7643 105.903 64.9486 105.354 63.8987C104.805 62.8488 104.53 61.6536 104.53 60.3129ZM115.773 60.3371C115.773 59.3357 115.571 58.4635 115.167 57.7205C114.763 56.9774 114.214 56.4121 113.519 56.0245C112.841 55.6206 112.09 55.4187 111.266 55.4187C110.442 55.4187 109.691 55.6126 109.013 56.0002C108.334 56.3879 107.793 56.9532 107.389 57.6962C106.986 58.4392 106.784 59.3115 106.784 60.3129C106.784 61.3305 106.986 62.2189 107.389 62.9781C107.793 63.7211 108.334 64.2945 109.013 64.6983C109.691 65.0859 110.442 65.2798 111.266 65.2798C112.09 65.2798 112.841 65.0859 113.519 64.6983C114.214 64.2945 114.763 63.7211 115.167 62.9781C115.571 62.2189 115.773 61.3386 115.773 60.3371ZM120.904 60.3129C120.904 58.9561 121.178 57.7689 121.727 56.7513C122.277 55.7176 123.028 54.918 123.981 54.3527C124.95 53.7874 126.032 53.5047 127.227 53.5047C128.261 53.5047 129.222 53.747 130.111 54.2315C130.999 54.7 131.677 55.3218 132.146 56.0971V49.0709H134.375V67H132.146V64.5045C131.71 65.2959 131.064 65.9501 130.207 66.467C129.351 66.9677 128.35 67.2181 127.203 67.2181C126.024 67.2181 124.95 66.9273 123.981 66.3458C123.028 65.7643 122.277 64.9486 121.727 63.8987C121.178 62.8488 120.904 61.6536 120.904 60.3129ZM132.146 60.3371C132.146 59.3357 131.944 58.4635 131.54 57.7205C131.136 56.9774 130.587 56.4121 129.892 56.0245C129.214 55.6206 128.463 55.4187 127.639 55.4187C126.815 55.4187 126.064 55.6126 125.386 56.0002C124.708 56.3879 124.166 56.9532 123.763 57.6962C123.359 58.4392 123.157 59.3115 123.157 60.3129C123.157 61.3305 123.359 62.2189 123.763 62.9781C124.166 63.7211 124.708 64.2945 125.386 64.6983C126.064 65.0859 126.815 65.2798 127.639 65.2798C128.463 65.2798 129.214 65.0859 129.892 64.6983C130.587 64.2945 131.136 63.7211 131.54 62.9781C131.944 62.2189 132.146 61.3386 132.146 60.3371ZM48.2717 86.1127V87.9056H40.9304V93.5993H46.8907V95.3922H40.9304V103H38.7256V86.1127H48.2717ZM53.1394 85.0709V103H50.9346V85.0709H53.1394ZM62.6877 103.218C61.444 103.218 60.3133 102.935 59.2957 102.37C58.2943 101.805 57.5028 101.005 56.9213 99.9714C56.356 98.9215 56.0733 97.7101 56.0733 96.3371C56.0733 94.9803 56.364 93.7851 56.9455 92.7513C57.5432 91.7014 58.3508 90.9019 59.3684 90.3527C60.386 89.7874 61.5247 89.5047 62.7846 89.5047C64.0445 89.5047 65.1832 89.7874 66.2008 90.3527C67.2184 90.9019 68.018 91.6933 68.5995 92.7271C69.1971 93.7608 69.4959 94.9642 69.4959 96.3371C69.4959 97.7101 69.189 98.9215 68.5752 99.9714C67.9776 101.005 67.1619 101.805 66.1282 102.37C65.0944 102.935 63.9476 103.218 62.6877 103.218ZM62.6877 101.28C63.4792 101.28 64.2222 101.094 64.9167 100.723C65.6113 100.351 66.1685 99.7938 66.5885 99.0507C67.0246 98.3077 67.2427 97.4032 67.2427 96.3371C67.2427 95.2711 67.0327 94.3666 66.6127 93.6235C66.1928 92.8805 65.6436 92.3314 64.9652 91.976C64.2868 91.6045 63.5519 91.4187 62.7604 91.4187C61.9528 91.4187 61.2098 91.6045 60.5314 91.976C59.8691 92.3314 59.3361 92.8805 58.9323 93.6235C58.5285 94.3666 58.3266 95.2711 58.3266 96.3371C58.3266 97.4194 58.5204 98.332 58.908 99.075C59.3119 99.818 59.8449 100.375 60.5071 100.747C61.1694 101.102 61.8962 101.28 62.6877 101.28ZM78.1855 103.218C76.9417 103.218 75.8111 102.935 74.7935 102.37C73.792 101.805 73.0006 101.005 72.4191 99.9714C71.8537 98.9215 71.5711 97.7101 71.5711 96.3371C71.5711 94.9803 71.8618 93.7851 72.4433 92.7513C73.0409 91.7014 73.8486 90.9019 74.8662 90.3527C75.8838 89.7874 77.0225 89.5047 78.2824 89.5047C79.5423 89.5047 80.681 89.7874 81.6986 90.3527C82.7162 90.9019 83.5158 91.6933 84.0972 92.7271C84.6949 93.7608 84.9937 94.9642 84.9937 96.3371C84.9937 97.7101 84.6868 98.9215 84.073 99.9714C83.4754 101.005 82.6597 101.805 81.6259 102.37C80.5922 102.935 79.4454 103.218 78.1855 103.218ZM78.1855 101.28C78.9769 101.28 79.7199 101.094 80.4145 100.723C81.109 100.351 81.6663 99.7938 82.0863 99.0507C82.5224 98.3077 82.7404 97.4032 82.7404 96.3371C82.7404 95.2711 82.5305 94.3666 82.1105 93.6235C81.6905 92.8805 81.1414 92.3314 80.463 91.976C79.7846 91.6045 79.0496 91.4187 78.2582 91.4187C77.4505 91.4187 76.7075 91.6045 76.0291 91.976C75.3669 92.3314 74.8338 92.8805 74.43 93.6235C74.0262 94.3666 73.8243 95.2711 73.8243 96.3371C73.8243 97.4194 74.0182 98.332 74.4058 99.075C74.8096 99.818 75.3426 100.375 76.0049 100.747C76.6671 101.102 77.394 101.28 78.1855 101.28ZM90.0974 91.8791C90.4851 91.1199 91.0342 90.5304 91.745 90.1104C92.4718 89.6904 93.3521 89.4805 94.3859 89.4805V91.7579H93.8044C91.3331 91.7579 90.0974 93.0986 90.0974 95.7799V103H87.8926V89.7227H90.0974V91.8791ZM120.52 86.2338V103H118.315V90.4981L112.743 103H111.192L105.595 90.4738V103H103.39V86.2338H105.765L111.967 100.093L118.17 86.2338H120.52ZM123.435 96.3129C123.435 94.9561 123.71 93.7689 124.259 92.7513C124.808 91.7176 125.559 90.918 126.512 90.3527C127.482 89.7874 128.556 89.5047 129.735 89.5047C130.898 89.5047 131.907 89.755 132.763 90.2558C133.619 90.7565 134.257 91.3864 134.677 92.1456V89.7227H136.906V103H134.677V100.529C134.241 101.304 133.587 101.95 132.715 102.467C131.859 102.968 130.857 103.218 129.711 103.218C128.531 103.218 127.465 102.927 126.512 102.346C125.559 101.764 124.808 100.949 124.259 99.8987C123.71 98.8488 123.435 97.6536 123.435 96.3129ZM134.677 96.3371C134.677 95.3357 134.476 94.4635 134.072 93.7205C133.668 92.9774 133.119 92.4121 132.424 92.0245C131.746 91.6206 130.995 91.4187 130.171 91.4187C129.347 91.4187 128.596 91.6126 127.918 92.0002C127.239 92.3879 126.698 92.9532 126.294 93.6962C125.891 94.4392 125.689 95.3115 125.689 96.3129C125.689 97.3305 125.891 98.2189 126.294 98.9781C126.698 99.7211 127.239 100.294 127.918 100.698C128.596 101.086 129.347 101.28 130.171 101.28C130.995 101.28 131.746 101.086 132.424 100.698C133.119 100.294 133.668 99.7211 134.072 98.9781C134.476 98.2189 134.677 97.3386 134.677 96.3371ZM142.837 92.1698C143.273 91.4107 143.919 90.7807 144.775 90.28C145.648 89.7631 146.657 89.5047 147.804 89.5047C148.983 89.5047 150.049 89.7874 151.002 90.3527C151.971 90.918 152.73 91.7176 153.28 92.7513C153.829 93.7689 154.103 94.9561 154.103 96.3129C154.103 97.6536 153.829 98.8488 153.28 99.8987C152.73 100.949 151.971 101.764 151.002 102.346C150.049 102.927 148.983 103.218 147.804 103.218C146.673 103.218 145.672 102.968 144.8 102.467C143.944 101.95 143.289 101.312 142.837 100.553V109.299H140.632V89.7227H142.837V92.1698ZM151.85 96.3129C151.85 95.3115 151.648 94.4392 151.244 93.6962C150.841 92.9532 150.291 92.3879 149.597 92.0002C148.919 91.6126 148.167 91.4187 147.344 91.4187C146.536 91.4187 145.785 91.6206 145.09 92.0245C144.412 92.4121 143.863 92.9855 143.443 93.7447C143.039 94.4877 142.837 95.3518 142.837 96.3371C142.837 97.3386 143.039 98.2189 143.443 98.9781C143.863 99.7211 144.412 100.294 145.09 100.698C145.785 101.086 146.536 101.28 147.344 101.28C148.167 101.28 148.919 101.086 149.597 100.698C150.291 100.294 150.841 99.7211 151.244 98.9781C151.648 98.2189 151.85 97.3305 151.85 96.3129Z" fill="black"/>
<path d="M235.281 115.094V92.4062H250.406L231.5 69.7188L212.594 92.4062H227.719V115.094H208.812V114.905C208.177 114.943 207.572 115.094 206.922 115.094C199.401 115.094 192.187 112.106 186.869 106.787C181.55 101.469 178.562 94.2557 178.562 86.7344C178.562 72.1841 189.566 60.3261 203.685 58.7002C204.923 52.2289 208.377 46.3912 213.454 42.1912C218.53 37.9913 224.911 35.6915 231.5 35.6875C238.09 35.6912 244.472 37.9907 249.55 42.1906C254.627 46.3905 258.083 52.2283 259.322 58.7002C273.442 60.3261 284.43 72.1841 284.43 86.7344C284.43 94.2557 281.442 101.469 276.124 106.787C270.805 112.106 263.592 115.094 256.071 115.094C255.435 115.094 254.823 114.943 254.18 114.905V115.094H235.281Z" fill="#003B5E"/>
</svg>
